<svg width="789" height="747" viewBox="0 0 789 747" fill="none" xmlns="http://www.w3.org/2000/svg">
<path d="M-24.9331 107.115L-72 159.909L134.022 343.582C171.521 302.326 224.293 277.984 280.86 275.848C337.427 273.712 393.212 293.956 436.083 332.176C478.955 370.397 505.443 423.502 509.788 479.942C514.133 536.382 495.983 591.591 459.286 633.561L665.378 817.297L712.445 764.503L649.947 673.384C666.198 641.12 677.763 606.611 684.307 570.864L788.134 539.566L777.827 396.233L670.074 373.966C658.443 339.001 641.987 305.693 621.19 275.019L670.175 179.195L561.327 82.155L471.718 141.761C438.873 124.608 403.906 112.073 367.845 104.523L333.406 0.0224097L189.834 6.16832L170.667 112.944C135.876 123.467 102.907 138.906 72.7479 158.799L-24.9331 107.115Z" fill="#DF922F" fill-opacity="0.25"/>
</svg>
