<?xml version="1.0" encoding="utf-8"?>
<!-- Generator: Adobe Illustrator 27.9.0, SVG Export Plug-In . SVG Version: 6.00 Build 0)  -->
<svg version="1.1" id="Capa_1" xmlns="http://www.w3.org/2000/svg" xmlns:xlink="http://www.w3.org/1999/xlink" x="0px" y="0px"
	 viewBox="0 0 11 11" style="enable-background:new 0 0 11 11;" xml:space="preserve">
<style type="text/css">
	.st0{fill:#303030;}
</style>
<path class="st0" d="M6.7,6L6,6.8C5.8,6.9,5.6,7,5.4,7C5.2,7,4.9,6.9,4.8,6.8L4,6L1.2,8.8c0.1,0,0.2,0.1,0.3,0.1h7.6
	c0.1,0,0.2,0,0.3-0.1L6.7,6z"/>
<path class="st0" d="M9.2,2.4H1.6c-0.1,0-0.2,0-0.3,0.1l3,3l1,1c0.1,0,0.1,0.1,0.2,0.1c0.1,0,0.2,0,0.2-0.1l1-1l3-3
	C9.4,2.4,9.3,2.4,9.2,2.4z"/>
<path class="st0" d="M0.9,2.8C0.8,2.9,0.8,3,0.8,3.2V8c0,0.1,0,0.2,0.1,0.4l2.8-2.8L0.9,2.8z"/>
<path class="st0" d="M9.9,2.8L7.1,5.6l2.8,2.8C10,8.3,10,8.2,10,8V3.2C10,3,10,2.9,9.9,2.8z"/>
</svg>
