<?xml version="1.0" encoding="utf-8"?>
<!-- Generator: Adobe Illustrator 27.9.0, SVG Export Plug-In . SVG Version: 6.00 Build 0)  -->
<svg version="1.1" id="Capa_1" xmlns="http://www.w3.org/2000/svg" xmlns:xlink="http://www.w3.org/1999/xlink" x="0px" y="0px"
	 viewBox="0 0 11 11" style="enable-background:new 0 0 11 11;" xml:space="preserve">
<style type="text/css">
	.st0{fill:#303030;}
</style>
<g id="Capa_1-2">
	<path class="st0" d="M6.4,5.1C6.7,4.9,7,4.6,7.2,4.3s0.2-0.8,0.1-1.2C7.2,2.6,7,2.3,6.7,2S5.9,1.6,5.5,1.6S4.7,1.7,4.4,2
		C4,2.3,3.8,2.6,3.7,3s0,0.9,0.1,1.3S4.3,5,4.7,5.2c-0.6,0.1-1.2,0.5-1.6,1S2.5,7.3,2.5,8v1.4h6V8c0-0.6-0.2-1.3-0.6-1.8
		C7.5,5.7,7,5.3,6.4,5.1z"/>
</g>
</svg>
