<svg version="1.1" id="Layer_1" xmlns="http://www.w3.org/2000/svg" xmlns:xlink="http://www.w3.org/1999/xlink" x="0px" y="0px"
	 width="100%" viewBox="0 0 236 116" enable-background="new 0 0 236 116" xml:space="preserve">
<path fill="#DF922F" opacity="1.000000" stroke="none" 
	d="
M101.000000,1.000000 
	C112.354225,1.000000 123.708458,1.000000 135.532578,1.407794 
	C137.677307,8.749655 139.227402,15.718352 141.134583,22.587912 
	C141.505920,23.925497 143.067520,25.301701 144.419662,25.934326 
	C150.420334,28.741865 156.498871,31.400978 162.658966,33.836227 
	C164.061920,34.390850 166.229248,34.416752 167.485580,33.702473 
	C174.114212,29.933809 180.563889,25.850368 187.342529,21.713243 
	C194.016098,28.431154 200.375214,35.248032 207.207047,41.552677 
	C211.255722,45.288952 210.779709,48.502777 208.042374,52.533794 
	C205.305511,56.564075 202.668777,60.723503 200.592606,65.112259 
	C199.717163,66.962814 199.787537,69.753532 200.475998,71.756706 
	C202.371124,77.270836 204.978531,82.536629 206.984756,88.017578 
	C208.018066,90.840538 209.572495,92.385597 212.543762,93.039597 
	C219.342651,94.536079 226.078354,96.319763 232.905884,98.449615 
	C232.972061,104.506691 232.972061,110.100967 232.972061,115.840683 
	C210.890656,115.840683 189.437973,115.840683 167.990906,115.395973 
	C167.662155,111.201485 167.813477,107.330940 166.915939,103.721184 
	C160.246902,76.899574 134.362564,60.873524 108.846092,66.282043 
	C85.048332,71.326263 69.403572,89.681213 67.550339,115.906799 
	C46.170597,115.972229 25.256409,115.972229 4.160291,115.972229 
	C4.160291,109.578781 4.160291,103.782806 4.548769,97.975761 
	C11.527983,96.298065 18.141178,94.712814 24.692818,92.904541 
	C26.228928,92.480576 28.290796,91.641685 28.858469,90.414429 
	C31.973043,83.681038 34.767624,76.794708 37.475254,69.883774 
	C37.844566,68.941147 37.404976,67.398163 36.842117,66.419418 
	C32.986763,59.715385 28.998579,53.087738 25.287861,46.831158 
	C33.676216,38.426022 41.658310,30.427958 49.839054,22.230846 
	C54.631737,25.112755 59.786182,27.891928 64.581612,31.192688 
	C68.743423,34.057320 72.330025,35.081104 77.135681,32.143677 
	C81.217522,29.648682 86.046432,28.287617 90.661995,26.784819 
	C93.788261,25.766926 95.431450,24.181982 96.105873,20.793528 
	C97.431206,14.134771 99.335342,7.591218 101.000000,1.000000 
z"/>
<path fill="#000000" opacity="1.000000" stroke="none" 
	d="
M232.839706,97.986801 
	C226.078354,96.319763 219.342651,94.536079 212.543762,93.039597 
	C209.572495,92.385597 208.018066,90.840538 206.984756,88.017578 
	C204.978531,82.536629 202.371124,77.270836 200.475998,71.756706 
	C199.787537,69.753532 199.717163,66.962814 200.592606,65.112259 
	C202.668777,60.723503 205.305511,56.564075 208.042374,52.533794 
	C210.779709,48.502777 211.255722,45.288952 207.207047,41.552677 
	C200.375214,35.248032 194.016098,28.431154 187.342529,21.713243 
	C180.563889,25.850368 174.114212,29.933809 167.485580,33.702473 
	C166.229248,34.416752 164.061920,34.390850 162.658966,33.836227 
	C156.498871,31.400978 150.420334,28.741865 144.419662,25.934326 
	C143.067520,25.301701 141.505920,23.925497 141.134583,22.587912 
	C139.227402,15.718352 137.677307,8.749655 136.001236,1.407794 
	C168.020889,1.000000 200.041794,1.000000 232.531342,1.468657 
	C232.946564,33.953812 232.893143,65.970306 232.839706,97.986801 
z"/>
<path fill="#000000" opacity="1.000000" stroke="none" 
	d="
M100.531342,1.000000 
	C99.335342,7.591218 97.431206,14.134771 96.105873,20.793528 
	C95.431450,24.181982 93.788261,25.766926 90.661995,26.784819 
	C86.046432,28.287617 81.217522,29.648682 77.135681,32.143677 
	C72.330025,35.081104 68.743423,34.057320 64.581612,31.192688 
	C59.786182,27.891928 54.631737,25.112755 49.839054,22.230846 
	C41.658310,30.427958 33.676216,38.426022 25.287861,46.831158 
	C28.998579,53.087738 32.986763,59.715385 36.842117,66.419418 
	C37.404976,67.398163 37.844566,68.941147 37.475254,69.883774 
	C34.767624,76.794708 31.973043,83.681038 28.858469,90.414429 
	C28.290796,91.641685 26.228928,92.480576 24.692818,92.904541 
	C18.141178,94.712814 11.527983,96.298065 4.474357,97.510727 
	C4.007645,65.037842 4.003822,33.018921 4.000000,1.000000 
	C36.020893,1.000000 68.041786,1.000000 100.531342,1.000000 
z"/>
<path fill="#FFFFFF" opacity="1.000000" stroke="none" 
	d="
M3.500000,1.000000 
	C4.003822,33.018921 4.007645,65.037842 4.085879,97.521797 
	C4.160291,103.782806 4.160291,109.578781 4.160291,115.972229 
	C25.256409,115.972229 46.170597,115.972229 68.015305,115.980446 
	C101.958977,115.939339 134.972137,115.890015 167.985291,115.840683 
	C189.437973,115.840683 210.890656,115.840683 232.972061,115.840683 
	C232.972061,110.100967 232.972061,104.506691 232.905884,98.449608 
	C232.893143,65.970306 232.946564,33.953812 233.000000,1.468657 
	C234.331924,1.000000 235.663864,1.000000 236.996841,1.000000 
	C236.997894,39.624523 236.997894,78.249046 236.997894,116.936783 
	C158.333328,116.936783 79.666664,116.936783 1.000000,116.936783 
	C1.000000,79.415131 0.983653,41.954601 1.073112,4.494328 
	C1.076015,3.278382 -0.532829,0.524170 3.500000,1.000000 
z"/>
<path fill="#000000" opacity="1.000000" stroke="none" 
	d="
M167.990906,115.395981 
	C134.972137,115.890015 101.958977,115.939339 68.480850,115.915024 
	C69.403572,89.681213 85.048332,71.326263 108.846092,66.282043 
	C134.362564,60.873524 160.246902,76.899574 166.915939,103.721184 
	C167.813477,107.330940 167.662155,111.201485 167.990906,115.395981 
z"/>
</svg>