<?xml version="1.0" encoding="utf-8"?>
<!-- Generator: Adobe Illustrator 27.9.0, SVG Export Plug-In . SVG Version: 6.00 Build 0)  -->
<svg version="1.1" id="Capa_1" xmlns="http://www.w3.org/2000/svg" xmlns:xlink="http://www.w3.org/1999/xlink" x="0px" y="0px"
	 viewBox="0 0 11 11" style="enable-background:new 0 0 11 11;" xml:space="preserve">
<style type="text/css">
	.st0{fill:#303030;}
</style>
<path class="st0" d="M7.9,4.6H7.4V3.9c0-0.5-0.2-1.1-0.6-1.4C6.5,2.1,5.9,1.9,5.4,1.9C4.9,1.9,4.3,2.1,4,2.5
	C3.6,2.9,3.4,3.4,3.4,3.9v0.6H2.9c-0.2,0-0.4,0.1-0.5,0.2C2.2,4.9,2.2,5.1,2.2,5.3v4c0,0.2,0.1,0.4,0.2,0.5c0.1,0.1,0.3,0.2,0.5,0.2
	h5.1c0.1,0,0.2,0,0.3-0.1c0.1,0,0.2-0.1,0.2-0.2c0.1-0.1,0.1-0.1,0.2-0.2c0-0.1,0.1-0.2,0.1-0.3v-4c0-0.1,0-0.2-0.1-0.3
	c0-0.1-0.1-0.2-0.2-0.2C8.4,4.7,8.3,4.6,8.2,4.6C8.1,4.6,8,4.6,7.9,4.6z M4.3,3.9c0-0.1,0-0.3,0.1-0.4c0.1-0.1,0.1-0.3,0.2-0.4
	C4.7,3,4.8,2.9,5,2.9s0.3-0.1,0.4-0.1s0.3,0,0.4,0.1C6,2.9,6.1,3,6.2,3.1c0.1,0.1,0.2,0.2,0.2,0.4c0.1,0.1,0.1,0.3,0.1,0.4v0.6H4.3
	V3.9z M5.8,8.1v1c0,0,0,0,0,0c0,0,0,0,0,0s0,0,0,0c0,0,0,0,0,0H5.2c0,0,0,0-0.1,0c0,0,0,0,0-0.1v-1C5,8,4.8,7.9,4.7,7.7
	C4.6,7.5,4.6,7.3,4.6,7.1c0-0.2,0.1-0.4,0.3-0.5c0.2-0.1,0.4-0.2,0.6-0.2c0.2,0,0.4,0.1,0.6,0.2c0.2,0.1,0.3,0.3,0.3,0.5
	c0,0.2,0,0.4-0.1,0.6S6,8,5.8,8.1z"/>
</svg>
